0
SECTION
2
ENTITIES
0
POLYLINE
8
SHEET_BOUNDARY
66
1
70
1
0
VERTEX
8
SHEET_BOUNDARY
10
0.000000
20
0.000000
0
VERTEX
8
SHEET_BOUNDARY
10
1220.000000
20
0.000000
0
VERTEX
8
SHEET_BOUNDARY
10
1220.000000
20
2440.000000
0
VERTEX
8
SHEET_BOUNDARY
10
0.000000
20
2440.000000
0
SEQEND
0
POLYLINE
8
Notched-Plate
66
1
70
1
0
VERTEX
8
Notched-Plate
10
0.000000
20
0.000000
0
VERTEX
8
Notched-Plate
10
115.000000
20
0.000000
0
VERTEX
8
Notched-Plate
10
130.000000
20
15.000000
0
VERTEX
8
Notched-Plate
10
145.000000
20
0.000000
0
VERTEX
8
Notched-Plate
10
260.000000
20
0.000000
0
VERTEX
8
Notched-Plate
10
260.000000
20
120.000000
0
VERTEX
8
Notched-Plate
10
0.000000
20
120.000000
0
SEQEND
0
POLYLINE
8
Notched-Plate
66
1
70
1
0
VERTEX
8
Notched-Plate
10
263.000000
20
0.000000
0
VERTEX
8
Notched-Plate
10
378.000000
20
0.000000
0
VERTEX
8
Notched-Plate
10
393.000000
20
15.000000
0
VERTEX
8
Notched-Plate
10
408.000000
20
0.000000
0
VERTEX
8
Notched-Plate
10
523.000000
20
0.000000
0
VERTEX
8
Notched-Plate
10
523.000000
20
120.000000
0
VERTEX
8
Notched-Plate
10
263.000000
20
120.000000
0
SEQEND
0
POLYLINE
8
Notched-Plate
66
1
70
1
0
VERTEX
8
Notched-Plate
10
526.000000
20
0.000000
0
VERTEX
8
Notched-Plate
10
641.000000
20
0.000000
0
VERTEX
8
Notched-Plate
10
656.000000
20
15.000000
0
VERTEX
8
Notched-Plate
10
671.000000
20
0.000000
0
VERTEX
8
Notched-Plate
10
786.000000
20
0.000000
0
VERTEX
8
Notched-Plate
10
786.000000
20
120.000000
0
VERTEX
8
Notched-Plate
10
526.000000
20
120.000000
0
SEQEND
0
POLYLINE
8
Notched-Plate
66
1
70
1
0
VERTEX
8
Notched-Plate
10
789.000000
20
0.000000
0
VERTEX
8
Notched-Plate
10
904.000000
20
0.000000
0
VERTEX
8
Notched-Plate
10
919.000000
20
15.000000
0
VERTEX
8
Notched-Plate
10
934.000000
20
0.000000
0
VERTEX
8
Notched-Plate
10
1049.000000
20
0.000000
0
VERTEX
8
Notched-Plate
10
1049.000000
20
120.000000
0
VERTEX
8
Notched-Plate
10
789.000000
20
120.000000
0
SEQEND
0
POLYLINE
8
Notched-Plate
66
1
70
1
0
VERTEX
8
Notched-Plate
10
1172.000000
20
0.000000
0
VERTEX
8
Notched-Plate
10
1172.000000
20
115.000000
0
VERTEX
8
Notched-Plate
10
1157.000000
20
130.000000
0
VERTEX
8
Notched-Plate
10
1172.000000
20
145.000000
0
VERTEX
8
Notched-Plate
10
1172.000000
20
260.000000
0
VERTEX
8
Notched-Plate
10
1052.000000
20
260.000000
0
VERTEX
8
Notched-Plate
10
1052.000000
20
0.000000
0
SEQEND
0
POLYLINE
8
Notched-Plate
66
1
70
1
0
VERTEX
8
Notched-Plate
10
0.000000
20
123.000000
0
VERTEX
8
Notched-Plate
10
115.000000
20
123.000000
0
VERTEX
8
Notched-Plate
10
130.000000
20
138.000000
0
VERTEX
8
Notched-Plate
10
145.000000
20
123.000000
0
VERTEX
8
Notched-Plate
10
260.000000
20
123.000000
0
VERTEX
8
Notched-Plate
10
260.000000
20
243.000000
0
VERTEX
8
Notched-Plate
10
0.000000
20
243.000000
0
SEQEND
0
POLYLINE
8
T-Bracket
66
1
70
1
0
VERTEX
8
T-Bracket
10
333.000000
20
123.000000
0
VERTEX
8
T-Bracket
10
393.000000
20
123.000000
0
VERTEX
8
T-Bracket
10
393.000000
20
173.000000
0
VERTEX
8
T-Bracket
10
463.000000
20
173.000000
0
VERTEX
8
T-Bracket
10
463.000000
20
283.000000
0
VERTEX
8
T-Bracket
10
263.000000
20
283.000000
0
VERTEX
8
T-Bracket
10
263.000000
20
173.000000
0
VERTEX
8
T-Bracket
10
333.000000
20
173.000000
0
SEQEND
0
POLYLINE
8
T-Bracket
66
1
70
1
0
VERTEX
8
T-Bracket
10
536.000000
20
123.000000
0
VERTEX
8
T-Bracket
10
596.000000
20
123.000000
0
VERTEX
8
T-Bracket
10
596.000000
20
173.000000
0
VERTEX
8
T-Bracket
10
666.000000
20
173.000000
0
VERTEX
8
T-Bracket
10
666.000000
20
283.000000
0
VERTEX
8
T-Bracket
10
466.000000
20
283.000000
0
VERTEX
8
T-Bracket
10
466.000000
20
173.000000
0
VERTEX
8
T-Bracket
10
536.000000
20
173.000000
0
SEQEND
0
POLYLINE
8
T-Bracket
66
1
70
1
0
VERTEX
8
T-Bracket
10
739.000000
20
123.000000
0
VERTEX
8
T-Bracket
10
799.000000
20
123.000000
0
VERTEX
8
T-Bracket
10
799.000000
20
173.000000
0
VERTEX
8
T-Bracket
10
869.000000
20
173.000000
0
VERTEX
8
T-Bracket
10
869.000000
20
283.000000
0
VERTEX
8
T-Bracket
10
669.000000
20
283.000000
0
VERTEX
8
T-Bracket
10
669.000000
20
173.000000
0
VERTEX
8
T-Bracket
10
739.000000
20
173.000000
0
SEQEND
0
POLYLINE
8
T-Bracket
66
1
70
1
0
VERTEX
8
T-Bracket
10
1032.000000
20
193.000000
0
VERTEX
8
T-Bracket
10
1032.000000
20
253.000000
0
VERTEX
8
T-Bracket
10
982.000000
20
253.000000
0
VERTEX
8
T-Bracket
10
982.000000
20
323.000000
0
VERTEX
8
T-Bracket
10
872.000000
20
323.000000
0
VERTEX
8
T-Bracket
10
872.000000
20
123.000000
0
VERTEX
8
T-Bracket
10
982.000000
20
123.000000
0
VERTEX
8
T-Bracket
10
982.000000
20
193.000000
0
SEQEND
0
POLYLINE
8
T-Bracket
66
1
70
1
0
VERTEX
8
T-Bracket
10
70.000000
20
246.000000
0
VERTEX
8
T-Bracket
10
130.000000
20
246.000000
0
VERTEX
8
T-Bracket
10
130.000000
20
296.000000
0
VERTEX
8
T-Bracket
10
200.000000
20
296.000000
0
VERTEX
8
T-Bracket
10
200.000000
20
406.000000
0
VERTEX
8
T-Bracket
10
0.000000
20
406.000000
0
VERTEX
8
T-Bracket
10
0.000000
20
296.000000
0
VERTEX
8
T-Bracket
10
70.000000
20
296.000000
0
SEQEND
0
POLYLINE
8
Mount-Plate
66
1
70
1
0
VERTEX
8
Mount-Plate
10
985.000000
20
263.000000
0
VERTEX
8
Mount-Plate
10
1165.000000
20
263.000000
0
VERTEX
8
Mount-Plate
10
1165.000000
20
383.000000
0
VERTEX
8
Mount-Plate
10
985.000000
20
383.000000
0
SEQEND
0
POLYLINE
8
Mount-Plate_HOLE
66
1
70
1
0
VERTEX
8
Mount-Plate_HOLE
10
1037.000000
20
303.000000
0
VERTEX
8
Mount-Plate_HOLE
10
1036.086554
20
307.592201
0
VERTEX
8
Mount-Plate_HOLE
10
1033.485281
20
311.485281
0
VERTEX
8
Mount-Plate_HOLE
10
1029.592201
20
314.086554
0
VERTEX
8
Mount-Plate_HOLE
10
1025.000000
20
315.000000
0
VERTEX
8
Mount-Plate_HOLE
10
1020.407799
20
314.086554
0
VERTEX
8
Mount-Plate_HOLE
10
1016.514719
20
311.485281
0
VERTEX
8
Mount-Plate_HOLE
10
1013.913446
20
307.592201
0
VERTEX
8
Mount-Plate_HOLE
10
1013.000000
20
303.000000
0
VERTEX
8
Mount-Plate_HOLE
10
1013.913446
20
298.407799
0
VERTEX
8
Mount-Plate_HOLE
10
1016.514719
20
294.514719
0
VERTEX
8
Mount-Plate_HOLE
10
1020.407799
20
291.913446
0
VERTEX
8
Mount-Plate_HOLE
10
1025.000000
20
291.000000
0
VERTEX
8
Mount-Plate_HOLE
10
1029.592201
20
291.913446
0
VERTEX
8
Mount-Plate_HOLE
10
1033.485281
20
294.514719
0
VERTEX
8
Mount-Plate_HOLE
10
1036.086554
20
298.407799
0
SEQEND
0
POLYLINE
8
Mount-Plate_HOLE
66
1
70
1
0
VERTEX
8
Mount-Plate_HOLE
10
1137.000000
20
303.000000
0
VERTEX
8
Mount-Plate_HOLE
10
1136.086554
20
307.592201
0
VERTEX
8
Mount-Plate_HOLE
10
1133.485281
20
311.485281
0
VERTEX
8
Mount-Plate_HOLE
10
1129.592201
20
314.086554
0
VERTEX
8
Mount-Plate_HOLE
10
1125.000000
20
315.000000
0
VERTEX
8
Mount-Plate_HOLE
10
1120.407799
20
314.086554
0
VERTEX
8
Mount-Plate_HOLE
10
1116.514719
20
311.485281
0
VERTEX
8
Mount-Plate_HOLE
10
1113.913446
20
307.592201
0
VERTEX
8
Mount-Plate_HOLE
10
1113.000000
20
303.000000
0
VERTEX
8
Mount-Plate_HOLE
10
1113.913446
20
298.407799
0
VERTEX
8
Mount-Plate_HOLE
10
1116.514719
20
294.514719
0
VERTEX
8
Mount-Plate_HOLE
10
1120.407799
20
291.913446
0
VERTEX
8
Mount-Plate_HOLE
10
1125.000000
20
291.000000
0
VERTEX
8
Mount-Plate_HOLE
10
1129.592201
20
291.913446
0
VERTEX
8
Mount-Plate_HOLE
10
1133.485281
20
294.514719
0
VERTEX
8
Mount-Plate_HOLE
10
1136.086554
20
298.407799
0
SEQEND
0
POLYLINE
8
Mount-Plate_HOLE
66
1
70
1
0
VERTEX
8
Mount-Plate_HOLE
10
1087.000000
20
353.000000
0
VERTEX
8
Mount-Plate_HOLE
10
1086.086554
20
357.592201
0
VERTEX
8
Mount-Plate_HOLE
10
1083.485281
20
361.485281
0
VERTEX
8
Mount-Plate_HOLE
10
1079.592201
20
364.086554
0
VERTEX
8
Mount-Plate_HOLE
10
1075.000000
20
365.000000
0
VERTEX
8
Mount-Plate_HOLE
10
1070.407799
20
364.086554
0
VERTEX
8
Mount-Plate_HOLE
10
1066.514719
20
361.485281
0
VERTEX
8
Mount-Plate_HOLE
10
1063.913446
20
357.592201
0
VERTEX
8
Mount-Plate_HOLE
10
1063.000000
20
353.000000
0
VERTEX
8
Mount-Plate_HOLE
10
1063.913446
20
348.407799
0
VERTEX
8
Mount-Plate_HOLE
10
1066.514719
20
344.514719
0
VERTEX
8
Mount-Plate_HOLE
10
1070.407799
20
341.913446
0
VERTEX
8
Mount-Plate_HOLE
10
1075.000000
20
341.000000
0
VERTEX
8
Mount-Plate_HOLE
10
1079.592201
20
341.913446
0
VERTEX
8
Mount-Plate_HOLE
10
1083.485281
20
344.514719
0
VERTEX
8
Mount-Plate_HOLE
10
1086.086554
20
348.407799
0
SEQEND
0
POLYLINE
8
Mount-Plate
66
1
70
1
0
VERTEX
8
Mount-Plate
10
203.000000
20
286.000000
0
VERTEX
8
Mount-Plate
10
383.000000
20
286.000000
0
VERTEX
8
Mount-Plate
10
383.000000
20
406.000000
0
VERTEX
8
Mount-Plate
10
203.000000
20
406.000000
0
SEQEND
0
POLYLINE
8
Mount-Plate_HOLE
66
1
70
1
0
VERTEX
8
Mount-Plate_HOLE
10
255.000000
20
326.000000
0
VERTEX
8
Mount-Plate_HOLE
10
254.086554
20
330.592201
0
VERTEX
8
Mount-Plate_HOLE
10
251.485281
20
334.485281
0
VERTEX
8
Mount-Plate_HOLE
10
247.592201
20
337.086554
0
VERTEX
8
Mount-Plate_HOLE
10
243.000000
20
338.000000
0
VERTEX
8
Mount-Plate_HOLE
10
238.407799
20
337.086554
0
VERTEX
8
Mount-Plate_HOLE
10
234.514719
20
334.485281
0
VERTEX
8
Mount-Plate_HOLE
10
231.913446
20
330.592201
0
VERTEX
8
Mount-Plate_HOLE
10
231.000000
20
326.000000
0
VERTEX
8
Mount-Plate_HOLE
10
231.913446
20
321.407799
0
VERTEX
8
Mount-Plate_HOLE
10
234.514719
20
317.514719
0
VERTEX
8
Mount-Plate_HOLE
10
238.407799
20
314.913446
0
VERTEX
8
Mount-Plate_HOLE
10
243.000000
20
314.000000
0
VERTEX
8
Mount-Plate_HOLE
10
247.592201
20
314.913446
0
VERTEX
8
Mount-Plate_HOLE
10
251.485281
20
317.514719
0
VERTEX
8
Mount-Plate_HOLE
10
254.086554
20
321.407799
0
SEQEND
0
POLYLINE
8
Mount-Plate_HOLE
66
1
70
1
0
VERTEX
8
Mount-Plate_HOLE
10
355.000000
20
326.000000
0
VERTEX
8
Mount-Plate_HOLE
10
354.086554
20
330.592201
0
VERTEX
8
Mount-Plate_HOLE
10
351.485281
20
334.485281
0
VERTEX
8
Mount-Plate_HOLE
10
347.592201
20
337.086554
0
VERTEX
8
Mount-Plate_HOLE
10
343.000000
20
338.000000
0
VERTEX
8
Mount-Plate_HOLE
10
338.407799
20
337.086554
0
VERTEX
8
Mount-Plate_HOLE
10
334.514719
20
334.485281
0
VERTEX
8
Mount-Plate_HOLE
10
331.913446
20
330.592201
0
VERTEX
8
Mount-Plate_HOLE
10
331.000000
20
326.000000
0
VERTEX
8
Mount-Plate_HOLE
10
331.913446
20
321.407799
0
VERTEX
8
Mount-Plate_HOLE
10
334.514719
20
317.514719
0
VERTEX
8
Mount-Plate_HOLE
10
338.407799
20
314.913446
0
VERTEX
8
Mount-Plate_HOLE
10
343.000000
20
314.000000
0
VERTEX
8
Mount-Plate_HOLE
10
347.592201
20
314.913446
0
VERTEX
8
Mount-Plate_HOLE
10
351.485281
20
317.514719
0
VERTEX
8
Mount-Plate_HOLE
10
354.086554
20
321.407799
0
SEQEND
0
POLYLINE
8
Mount-Plate_HOLE
66
1
70
1
0
VERTEX
8
Mount-Plate_HOLE
10
305.000000
20
376.000000
0
VERTEX
8
Mount-Plate_HOLE
10
304.086554
20
380.592201
0
VERTEX
8
Mount-Plate_HOLE
10
301.485281
20
384.485281
0
VERTEX
8
Mount-Plate_HOLE
10
297.592201
20
387.086554
0
VERTEX
8
Mount-Plate_HOLE
10
293.000000
20
388.000000
0
VERTEX
8
Mount-Plate_HOLE
10
288.407799
20
387.086554
0
VERTEX
8
Mount-Plate_HOLE
10
284.514719
20
384.485281
0
VERTEX
8
Mount-Plate_HOLE
10
281.913446
20
380.592201
0
VERTEX
8
Mount-Plate_HOLE
10
281.000000
20
376.000000
0
VERTEX
8
Mount-Plate_HOLE
10
281.913446
20
371.407799
0
VERTEX
8
Mount-Plate_HOLE
10
284.514719
20
367.514719
0
VERTEX
8
Mount-Plate_HOLE
10
288.407799
20
364.913446
0
VERTEX
8
Mount-Plate_HOLE
10
293.000000
20
364.000000
0
VERTEX
8
Mount-Plate_HOLE
10
297.592201
20
364.913446
0
VERTEX
8
Mount-Plate_HOLE
10
301.485281
20
367.514719
0
VERTEX
8
Mount-Plate_HOLE
10
304.086554
20
371.407799
0
SEQEND
0
POLYLINE
8
Mount-Plate
66
1
70
1
0
VERTEX
8
Mount-Plate
10
386.000000
20
286.000000
0
VERTEX
8
Mount-Plate
10
566.000000
20
286.000000
0
VERTEX
8
Mount-Plate
10
566.000000
20
406.000000
0
VERTEX
8
Mount-Plate
10
386.000000
20
406.000000
0
SEQEND
0
POLYLINE
8
Mount-Plate_HOLE
66
1
70
1
0
VERTEX
8
Mount-Plate_HOLE
10
438.000000
20
326.000000
0
VERTEX
8
Mount-Plate_HOLE
10
437.086554
20
330.592201
0
VERTEX
8
Mount-Plate_HOLE
10
434.485281
20
334.485281
0
VERTEX
8
Mount-Plate_HOLE
10
430.592201
20
337.086554
0
VERTEX
8
Mount-Plate_HOLE
10
426.000000
20
338.000000
0
VERTEX
8
Mount-Plate_HOLE
10
421.407799
20
337.086554
0
VERTEX
8
Mount-Plate_HOLE
10
417.514719
20
334.485281
0
VERTEX
8
Mount-Plate_HOLE
10
414.913446
20
330.592201
0
VERTEX
8
Mount-Plate_HOLE
10
414.000000
20
326.000000
0
VERTEX
8
Mount-Plate_HOLE
10
414.913446
20
321.407799
0
VERTEX
8
Mount-Plate_HOLE
10
417.514719
20
317.514719
0
VERTEX
8
Mount-Plate_HOLE
10
421.407799
20
314.913446
0
VERTEX
8
Mount-Plate_HOLE
10
426.000000
20
314.000000
0
VERTEX
8
Mount-Plate_HOLE
10
430.592201
20
314.913446
0
VERTEX
8
Mount-Plate_HOLE
10
434.485281
20
317.514719
0
VERTEX
8
Mount-Plate_HOLE
10
437.086554
20
321.407799
0
SEQEND
0
POLYLINE
8
Mount-Plate_HOLE
66
1
70
1
0
VERTEX
8
Mount-Plate_HOLE
10
538.000000
20
326.000000
0
VERTEX
8
Mount-Plate_HOLE
10
537.086554
20
330.592201
0
VERTEX
8
Mount-Plate_HOLE
10
534.485281
20
334.485281
0
VERTEX
8
Mount-Plate_HOLE
10
530.592201
20
337.086554
0
VERTEX
8
Mount-Plate_HOLE
10
526.000000
20
338.000000
0
VERTEX
8
Mount-Plate_HOLE
10
521.407799
20
337.086554
0
VERTEX
8
Mount-Plate_HOLE
10
517.514719
20
334.485281
0
VERTEX
8
Mount-Plate_HOLE
10
514.913446
20
330.592201
0
VERTEX
8
Mount-Plate_HOLE
10
514.000000
20
326.000000
0
VERTEX
8
Mount-Plate_HOLE
10
514.913446
20
321.407799
0
VERTEX
8
Mount-Plate_HOLE
10
517.514719
20
317.514719
0
VERTEX
8
Mount-Plate_HOLE
10
521.407799
20
314.913446
0
VERTEX
8
Mount-Plate_HOLE
10
526.000000
20
314.000000
0
VERTEX
8
Mount-Plate_HOLE
10
530.592201
20
314.913446
0
VERTEX
8
Mount-Plate_HOLE
10
534.485281
20
317.514719
0
VERTEX
8
Mount-Plate_HOLE
10
537.086554
20
321.407799
0
SEQEND
0
POLYLINE
8
Mount-Plate_HOLE
66
1
70
1
0
VERTEX
8
Mount-Plate_HOLE
10
488.000000
20
376.000000
0
VERTEX
8
Mount-Plate_HOLE
10
487.086554
20
380.592201
0
VERTEX
8
Mount-Plate_HOLE
10
484.485281
20
384.485281
0
VERTEX
8
Mount-Plate_HOLE
10
480.592201
20
387.086554
0
VERTEX
8
Mount-Plate_HOLE
10
476.000000
20
388.000000
0
VERTEX
8
Mount-Plate_HOLE
10
471.407799
20
387.086554
0
VERTEX
8
Mount-Plate_HOLE
10
467.514719
20
384.485281
0
VERTEX
8
Mount-Plate_HOLE
10
464.913446
20
380.592201
0
VERTEX
8
Mount-Plate_HOLE
10
464.000000
20
376.000000
0
VERTEX
8
Mount-Plate_HOLE
10
464.913446
20
371.407799
0
VERTEX
8
Mount-Plate_HOLE
10
467.514719
20
367.514719
0
VERTEX
8
Mount-Plate_HOLE
10
471.407799
20
364.913446
0
VERTEX
8
Mount-Plate_HOLE
10
476.000000
20
364.000000
0
VERTEX
8
Mount-Plate_HOLE
10
480.592201
20
364.913446
0
VERTEX
8
Mount-Plate_HOLE
10
484.485281
20
367.514719
0
VERTEX
8
Mount-Plate_HOLE
10
487.086554
20
371.407799
0
SEQEND
0
POLYLINE
8
Mount-Plate
66
1
70
1
0
VERTEX
8
Mount-Plate
10
569.000000
20
286.000000
0
VERTEX
8
Mount-Plate
10
749.000000
20
286.000000
0
VERTEX
8
Mount-Plate
10
749.000000
20
406.000000
0
VERTEX
8
Mount-Plate
10
569.000000
20
406.000000
0
SEQEND
0
POLYLINE
8
Mount-Plate_HOLE
66
1
70
1
0
VERTEX
8
Mount-Plate_HOLE
10
621.000000
20
326.000000
0
VERTEX
8
Mount-Plate_HOLE
10
620.086554
20
330.592201
0
VERTEX
8
Mount-Plate_HOLE
10
617.485281
20
334.485281
0
VERTEX
8
Mount-Plate_HOLE
10
613.592201
20
337.086554
0
VERTEX
8
Mount-Plate_HOLE
10
609.000000
20
338.000000
0
VERTEX
8
Mount-Plate_HOLE
10
604.407799
20
337.086554
0
VERTEX
8
Mount-Plate_HOLE
10
600.514719
20
334.485281
0
VERTEX
8
Mount-Plate_HOLE
10
597.913446
20
330.592201
0
VERTEX
8
Mount-Plate_HOLE
10
597.000000
20
326.000000
0
VERTEX
8
Mount-Plate_HOLE
10
597.913446
20
321.407799
0
VERTEX
8
Mount-Plate_HOLE
10
600.514719
20
317.514719
0
VERTEX
8
Mount-Plate_HOLE
10
604.407799
20
314.913446
0
VERTEX
8
Mount-Plate_HOLE
10
609.000000
20
314.000000
0
VERTEX
8
Mount-Plate_HOLE
10
613.592201
20
314.913446
0
VERTEX
8
Mount-Plate_HOLE
10
617.485281
20
317.514719
0
VERTEX
8
Mount-Plate_HOLE
10
620.086554
20
321.407799
0
SEQEND
0
POLYLINE
8
Mount-Plate_HOLE
66
1
70
1
0
VERTEX
8
Mount-Plate_HOLE
10
721.000000
20
326.000000
0
VERTEX
8
Mount-Plate_HOLE
10
720.086554
20
330.592201
0
VERTEX
8
Mount-Plate_HOLE
10
717.485281
20
334.485281
0
VERTEX
8
Mount-Plate_HOLE
10
713.592201
20
337.086554
0
VERTEX
8
Mount-Plate_HOLE
10
709.000000
20
338.000000
0
VERTEX
8
Mount-Plate_HOLE
10
704.407799
20
337.086554
0
VERTEX
8
Mount-Plate_HOLE
10
700.514719
20
334.485281
0
VERTEX
8
Mount-Plate_HOLE
10
697.913446
20
330.592201
0
VERTEX
8
Mount-Plate_HOLE
10
697.000000
20
326.000000
0
VERTEX
8
Mount-Plate_HOLE
10
697.913446
20
321.407799
0
VERTEX
8
Mount-Plate_HOLE
10
700.514719
20
317.514719
0
VERTEX
8
Mount-Plate_HOLE
10
704.407799
20
314.913446
0
VERTEX
8
Mount-Plate_HOLE
10
709.000000
20
314.000000
0
VERTEX
8
Mount-Plate_HOLE
10
713.592201
20
314.913446
0
VERTEX
8
Mount-Plate_HOLE
10
717.485281
20
317.514719
0
VERTEX
8
Mount-Plate_HOLE
10
720.086554
20
321.407799
0
SEQEND
0
POLYLINE
8
Mount-Plate_HOLE
66
1
70
1
0
VERTEX
8
Mount-Plate_HOLE
10
671.000000
20
376.000000
0
VERTEX
8
Mount-Plate_HOLE
10
670.086554
20
380.592201
0
VERTEX
8
Mount-Plate_HOLE
10
667.485281
20
384.485281
0
VERTEX
8
Mount-Plate_HOLE
10
663.592201
20
387.086554
0
VERTEX
8
Mount-Plate_HOLE
10
659.000000
20
388.000000
0
VERTEX
8
Mount-Plate_HOLE
10
654.407799
20
387.086554
0
VERTEX
8
Mount-Plate_HOLE
10
650.514719
20
384.485281
0
VERTEX
8
Mount-Plate_HOLE
10
647.913446
20
380.592201
0
VERTEX
8
Mount-Plate_HOLE
10
647.000000
20
376.000000
0
VERTEX
8
Mount-Plate_HOLE
10
647.913446
20
371.407799
0
VERTEX
8
Mount-Plate_HOLE
10
650.514719
20
367.514719
0
VERTEX
8
Mount-Plate_HOLE
10
654.407799
20
364.913446
0
VERTEX
8
Mount-Plate_HOLE
10
659.000000
20
364.000000
0
VERTEX
8
Mount-Plate_HOLE
10
663.592201
20
364.913446
0
VERTEX
8
Mount-Plate_HOLE
10
667.485281
20
367.514719
0
VERTEX
8
Mount-Plate_HOLE
10
670.086554
20
371.407799
0
SEQEND
0
POLYLINE
8
L-Bracket-A
66
1
70
1
0
VERTEX
8
L-Bracket-A
10
1213.000000
20
443.000000
0
VERTEX
8
L-Bracket-A
10
993.000000
20
443.000000
0
VERTEX
8
L-Bracket-A
10
993.000000
20
398.000000
0
VERTEX
8
L-Bracket-A
10
1168.000000
20
398.000000
0
VERTEX
8
L-Bracket-A
10
1168.000000
20
263.000000
0
VERTEX
8
L-Bracket-A
10
1213.000000
20
263.000000
0
SEQEND
0
POLYLINE
8
L-Bracket-A
66
1
70
1
0
VERTEX
8
L-Bracket-A
10
797.000000
20
466.000000
0
VERTEX
8
L-Bracket-A
10
577.000000
20
466.000000
0
VERTEX
8
L-Bracket-A
10
577.000000
20
421.000000
0
VERTEX
8
L-Bracket-A
10
752.000000
20
421.000000
0
VERTEX
8
L-Bracket-A
10
752.000000
20
286.000000
0
VERTEX
8
L-Bracket-A
10
797.000000
20
286.000000
0
SEQEND
0
POLYLINE
8
L-Bracket-A
66
1
70
1
0
VERTEX
8
L-Bracket-A
10
800.000000
20
506.000000
0
VERTEX
8
L-Bracket-A
10
800.000000
20
286.000000
0
VERTEX
8
L-Bracket-A
10
845.000000
20
286.000000
0
VERTEX
8
L-Bracket-A
10
845.000000
20
461.000000
0
VERTEX
8
L-Bracket-A
10
980.000000
20
461.000000
0
VERTEX
8
L-Bracket-A
10
980.000000
20
506.000000
0
SEQEND
0
POLYLINE
8
L-Bracket-A
66
1
70
1
0
VERTEX
8
L-Bracket-A
10
0.000000
20
409.000000
0
VERTEX
8
L-Bracket-A
10
220.000000
20
409.000000
0
VERTEX
8
L-Bracket-A
10
220.000000
20
454.000000
0
VERTEX
8
L-Bracket-A
10
45.000000
20
454.000000
0
VERTEX
8
L-Bracket-A
10
45.000000
20
589.000000
0
VERTEX
8
L-Bracket-A
10
0.000000
20
589.000000
0
SEQEND
0
POLYLINE
8
L-Bracket-A
66
1
70
1
0
VERTEX
8
L-Bracket-A
10
268.000000
20
589.000000
0
VERTEX
8
L-Bracket-A
10
48.000000
20
589.000000
0
VERTEX
8
L-Bracket-A
10
48.000000
20
544.000000
0
VERTEX
8
L-Bracket-A
10
223.000000
20
544.000000
0
VERTEX
8
L-Bracket-A
10
223.000000
20
409.000000
0
VERTEX
8
L-Bracket-A
10
268.000000
20
409.000000
0
SEQEND
0
POLYLINE
8
L-Bracket-A
66
1
70
1
0
VERTEX
8
L-Bracket-A
10
271.000000
20
409.000000
0
VERTEX
8
L-Bracket-A
10
491.000000
20
409.000000
0
VERTEX
8
L-Bracket-A
10
491.000000
20
454.000000
0
VERTEX
8
L-Bracket-A
10
316.000000
20
454.000000
0
VERTEX
8
L-Bracket-A
10
316.000000
20
589.000000
0
VERTEX
8
L-Bracket-A
10
271.000000
20
589.000000
0
SEQEND
0
POLYLINE
8
Hexagon-Plate
66
1
70
1
0
VERTEX
8
Hexagon-Plate
10
988.000000
20
396.392278
0
VERTEX
8
Hexagon-Plate
10
953.000000
20
457.014057
0
VERTEX
8
Hexagon-Plate
10
883.000000
20
457.014057
0
VERTEX
8
Hexagon-Plate
10
848.000000
20
396.392278
0
VERTEX
8
Hexagon-Plate
10
883.000000
20
335.770500
0
VERTEX
8
Hexagon-Plate
10
953.000000
20
335.770500
0
SEQEND
0
POLYLINE
8
Hexagon-Plate
66
1
70
1
0
VERTEX
8
Hexagon-Plate
10
584.229457
20
544.906000
0
VERTEX
8
Hexagon-Plate
10
523.607678
20
579.906000
0
VERTEX
8
Hexagon-Plate
10
462.985900
20
544.906000
0
VERTEX
8
Hexagon-Plate
10
462.985900
20
474.906000
0
VERTEX
8
Hexagon-Plate
10
523.607678
20
439.906000
0
VERTEX
8
Hexagon-Plate
10
584.229457
20
474.906000
0
SEQEND
0
POLYLINE
8
Hexagon-Plate
66
1
70
1
0
VERTEX
8
Hexagon-Plate
10
1123.000000
20
506.621778
0
VERTEX
8
Hexagon-Plate
10
1088.000000
20
567.243557
0
VERTEX
8
Hexagon-Plate
10
1018.000000
20
567.243557
0
VERTEX
8
Hexagon-Plate
10
983.000000
20
506.621778
0
VERTEX
8
Hexagon-Plate
10
1018.000000
20
446.000000
0
VERTEX
8
Hexagon-Plate
10
1088.000000
20
446.000000
0
SEQEND
0
POLYLINE
8
Hexagon-Plate
66
1
70
1
0
VERTEX
8
Hexagon-Plate
10
459.000000
20
517.621778
0
VERTEX
8
Hexagon-Plate
10
424.000000
20
578.243557
0
VERTEX
8
Hexagon-Plate
10
354.000000
20
578.243557
0
VERTEX
8
Hexagon-Plate
10
319.000000
20
517.621778
0
VERTEX
8
Hexagon-Plate
10
354.000000
20
457.000000
0
VERTEX
8
Hexagon-Plate
10
424.000000
20
457.000000
0
SEQEND
0
POLYLINE
8
Hexagon-Plate
66
1
70
1
0
VERTEX
8
Hexagon-Plate
10
727.229500
20
529.621778
0
VERTEX
8
Hexagon-Plate
10
692.229500
20
590.243557
0
VERTEX
8
Hexagon-Plate
10
622.229500
20
590.243557
0
VERTEX
8
Hexagon-Plate
10
587.229500
20
529.621778
0
VERTEX
8
Hexagon-Plate
10
622.229500
20
469.000000
0
VERTEX
8
Hexagon-Plate
10
692.229500
20
469.000000
0
SEQEND
0
POLYLINE
8
Hexagon-Plate
66
1
70
1
0
VERTEX
8
Hexagon-Plate
10
847.132357
20
607.944000
0
VERTEX
8
Hexagon-Plate
10
786.510578
20
642.944000
0
VERTEX
8
Hexagon-Plate
10
725.888800
20
607.944000
0
VERTEX
8
Hexagon-Plate
10
725.888800
20
537.944000
0
VERTEX
8
Hexagon-Plate
10
786.510578
20
502.944000
0
VERTEX
8
Hexagon-Plate
10
847.132357
20
537.944000
0
SEQEND
0
POLYLINE
8
Hexagon-Plate
66
1
70
1
0
VERTEX
8
Hexagon-Plate
10
990.132400
20
569.621778
0
VERTEX
8
Hexagon-Plate
10
955.132400
20
630.243557
0
VERTEX
8
Hexagon-Plate
10
885.132400
20
630.243557
0
VERTEX
8
Hexagon-Plate
10
850.132400
20
569.621778
0
VERTEX
8
Hexagon-Plate
10
885.132400
20
509.000000
0
VERTEX
8
Hexagon-Plate
10
955.132400
20
509.000000
0
SEQEND
0
POLYLINE
8
Hexagon-Plate
66
1
70
1
0
VERTEX
8
Hexagon-Plate
10
1219.999957
20
624.613000
0
VERTEX
8
Hexagon-Plate
10
1159.378178
20
659.613000
0
VERTEX
8
Hexagon-Plate
10
1098.756400
20
624.613000
0
VERTEX
8
Hexagon-Plate
10
1098.756400
20
554.613000
0
VERTEX
8
Hexagon-Plate
10
1159.378178
20
519.613000
0
VERTEX
8
Hexagon-Plate
10
1219.999957
20
554.613000
0
SEQEND
0
POLYLINE
8
Star-Deco
66
1
70
1
0
VERTEX
8
Star-Deco
10
456.311186
20
536.466800
0
VERTEX
8
Star-Deco
10
476.311186
20
591.825784
0
VERTEX
8
Star-Deco
10
534.253473
20
581.466800
0
VERTEX
8
Star-Deco
10
496.311186
20
626.466800
0
VERTEX
8
Star-Deco
10
534.253473
20
671.466800
0
VERTEX
8
Star-Deco
10
476.311186
20
661.107816
0
VERTEX
8
Star-Deco
10
456.311186
20
716.466800
0
VERTEX
8
Star-Deco
10
436.311186
20
661.107816
0
VERTEX
8
Star-Deco
10
378.368900
20
671.466800
0
VERTEX
8
Star-Deco
10
416.311186
20
626.466800
0
VERTEX
8
Star-Deco
10
378.368900
20
581.466800
0
VERTEX
8
Star-Deco
10
436.311186
20
591.825784
0
SEQEND
0
POLYLINE
8
Star-Deco
66
1
70
1
0
VERTEX
8
Star-Deco
10
326.169686
20
572.154700
0
VERTEX
8
Star-Deco
10
346.169686
20
627.513684
0
VERTEX
8
Star-Deco
10
404.111973
20
617.154700
0
VERTEX
8
Star-Deco
10
366.169686
20
662.154700
0
VERTEX
8
Star-Deco
10
404.111973
20
707.154700
0
VERTEX
8
Star-Deco
10
346.169686
20
696.795716
0
VERTEX
8
Star-Deco
10
326.169686
20
752.154700
0
VERTEX
8
Star-Deco
10
306.169686
20
696.795716
0
VERTEX
8
Star-Deco
10
248.227400
20
707.154700
0
VERTEX
8
Star-Deco
10
286.169686
20
662.154700
0
VERTEX
8
Star-Deco
10
248.227400
20
617.154700
0
VERTEX
8
Star-Deco
10
306.169686
20
627.513684
0
SEQEND
0
POLYLINE
8
Star-Deco
66
1
70
1
0
VERTEX
8
Star-Deco
10
1029.762686
20
588.243600
0
VERTEX
8
Star-Deco
10
1049.762686
20
643.602584
0
VERTEX
8
Star-Deco
10
1107.704973
20
633.243600
0
VERTEX
8
Star-Deco
10
1069.762686
20
678.243600
0
VERTEX
8
Star-Deco
10
1107.704973
20
723.243600
0
VERTEX
8
Star-Deco
10
1049.762686
20
712.884616
0
VERTEX
8
Star-Deco
10
1029.762686
20
768.243600
0
VERTEX
8
Star-Deco
10
1009.762686
20
712.884616
0
VERTEX
8
Star-Deco
10
951.820400
20
723.243600
0
VERTEX
8
Star-Deco
10
989.762686
20
678.243600
0
VERTEX
8
Star-Deco
10
951.820400
20
633.243600
0
VERTEX
8
Star-Deco
10
1009.762686
20
643.602584
0
SEQEND
0
POLYLINE
8
Star-Deco
66
1
70
1
0
VERTEX
8
Star-Deco
10
77.942286
20
592.000000
0
VERTEX
8
Star-Deco
10
97.942286
20
647.358984
0
VERTEX
8
Star-Deco
10
155.884573
20
637.000000
0
VERTEX
8
Star-Deco
10
117.942286
20
682.000000
0
VERTEX
8
Star-Deco
10
155.884573
20
727.000000
0
VERTEX
8
Star-Deco
10
97.942286
20
716.641016
0
VERTEX
8
Star-Deco
10
77.942286
20
772.000000
0
VERTEX
8
Star-Deco
10
57.942286
20
716.641016
0
VERTEX
8
Star-Deco
10
0.000000
20
727.000000
0
VERTEX
8
Star-Deco
10
37.942286
20
682.000000
0
VERTEX
8
Star-Deco
10
0.000000
20
637.000000
0
VERTEX
8
Star-Deco
10
57.942286
20
647.358984
0
SEQEND
0
POLYLINE
8
Washer-Plate
66
1
70
1
0
VERTEX
8
Washer-Plate
10
537.904500
20
593.243600
0
VERTEX
8
Washer-Plate
10
637.904500
20
593.243600
0
VERTEX
8
Washer-Plate
10
637.904500
20
693.243600
0
VERTEX
8
Washer-Plate
10
537.904500
20
693.243600
0
SEQEND
0
POLYLINE
8
Washer-Plate_HOLE
66
1
70
1
0
VERTEX
8
Washer-Plate_HOLE
10
617.904500
20
643.243600
0
VERTEX
8
Washer-Plate_HOLE
10
615.620886
20
654.724103
0
VERTEX
8
Washer-Plate_HOLE
10
609.117703
20
664.456803
0
VERTEX
8
Washer-Plate_HOLE
10
599.385003
20
670.959986
0
VERTEX
8
Washer-Plate_HOLE
10
587.904500
20
673.243600
0
VERTEX
8
Washer-Plate_HOLE
10
576.423997
20
670.959986
0
VERTEX
8
Washer-Plate_HOLE
10
566.691297
20
664.456803
0
VERTEX
8
Washer-Plate_HOLE
10
560.188114
20
654.724103
0
VERTEX
8
Washer-Plate_HOLE
10
557.904500
20
643.243600
0
VERTEX
8
Washer-Plate_HOLE
10
560.188114
20
631.763097
0
VERTEX
8
Washer-Plate_HOLE
10
566.691297
20
622.030397
0
VERTEX
8
Washer-Plate_HOLE
10
576.423997
20
615.527214
0
VERTEX
8
Washer-Plate_HOLE
10
587.904500
20
613.243600
0
VERTEX
8
Washer-Plate_HOLE
10
599.385003
20
615.527214
0
VERTEX
8
Washer-Plate_HOLE
10
609.117703
20
622.030397
0
VERTEX
8
Washer-Plate_HOLE
10
615.620886
20
631.763097
0
SEQEND
0
POLYLINE
8
Washer-Plate
66
1
70
1
0
VERTEX
8
Washer-Plate
10
640.904500
20
620.077500
0
VERTEX
8
Washer-Plate
10
740.904500
20
620.077500
0
VERTEX
8
Washer-Plate
10
740.904500
20
720.077500
0
VERTEX
8
Washer-Plate
10
640.904500
20
720.077500
0
SEQEND
0
POLYLINE
8
Washer-Plate_HOLE
66
1
70
1
0
VERTEX
8
Washer-Plate_HOLE
10
720.904500
20
670.077500
0
VERTEX
8
Washer-Plate_HOLE
10
718.620886
20
681.558003
0
VERTEX
8
Washer-Plate_HOLE
10
712.117703
20
691.290703
0
VERTEX
8
Washer-Plate_HOLE
10
702.385003
20
697.793886
0
VERTEX
8
Washer-Plate_HOLE
10
690.904500
20
700.077500
0
VERTEX
8
Washer-Plate_HOLE
10
679.423997
20
697.793886
0
VERTEX
8
Washer-Plate_HOLE
10
669.691297
20
691.290703
0
VERTEX
8
Washer-Plate_HOLE
10
663.188114
20
681.558003
0
VERTEX
8
Washer-Plate_HOLE
10
660.904500
20
670.077500
0
VERTEX
8
Washer-Plate_HOLE
10
663.188114
20
658.596997
0
VERTEX
8
Washer-Plate_HOLE
10
669.691297
20
648.864297
0
VERTEX
8
Washer-Plate_HOLE
10
679.423997
20
642.361114
0
VERTEX
8
Washer-Plate_HOLE
10
690.904500
20
640.077500
0
VERTEX
8
Washer-Plate_HOLE
10
702.385003
20
642.361114
0
VERTEX
8
Washer-Plate_HOLE
10
712.117703
20
648.864297
0
VERTEX
8
Washer-Plate_HOLE
10
718.620886
20
658.596997
0
SEQEND
0
POLYLINE
8
Washer-Plate
66
1
70
1
0
VERTEX
8
Washer-Plate
10
809.312200
20
633.243600
0
VERTEX
8
Washer-Plate
10
909.312200
20
633.243600
0
VERTEX
8
Washer-Plate
10
909.312200
20
733.243600
0
VERTEX
8
Washer-Plate
10
809.312200
20
733.243600
0
SEQEND
0
POLYLINE
8
Washer-Plate_HOLE
66
1
70
1
0
VERTEX
8
Washer-Plate_HOLE
10
889.312200
20
683.243600
0
VERTEX
8
Washer-Plate_HOLE
10
887.028586
20
694.724103
0
VERTEX
8
Washer-Plate_HOLE
10
880.525403
20
704.456803
0
VERTEX
8
Washer-Plate_HOLE
10
870.792703
20
710.959986
0
VERTEX
8
Washer-Plate_HOLE
10
859.312200
20
713.243600
0
VERTEX
8
Washer-Plate_HOLE
10
847.831697
20
710.959986
0
VERTEX
8
Washer-Plate_HOLE
10
838.098997
20
704.456803
0
VERTEX
8
Washer-Plate_HOLE
10
831.595814
20
694.724103
0
VERTEX
8
Washer-Plate_HOLE
10
829.312200
20
683.243600
0
VERTEX
8
Washer-Plate_HOLE
10
831.595814
20
671.763097
0
VERTEX
8
Washer-Plate_HOLE
10
838.098997
20
662.030397
0
VERTEX
8
Washer-Plate_HOLE
10
847.831697
20
655.527214
0
VERTEX
8
Washer-Plate_HOLE
10
859.312200
20
653.243600
0
VERTEX
8
Washer-Plate_HOLE
10
870.792703
20
655.527214
0
VERTEX
8
Washer-Plate_HOLE
10
880.525403
20
662.030397
0
VERTEX
8
Washer-Plate_HOLE
10
887.028586
20
671.763097
0
SEQEND
0
POLYLINE
8
Washer-Plate
66
1
70
1
0
VERTEX
8
Washer-Plate
10
1111.356000
20
663.077100
0
VERTEX
8
Washer-Plate
10
1211.356000
20
663.077100
0
VERTEX
8
Washer-Plate
10
1211.356000
20
763.077100
0
VERTEX
8
Washer-Plate
10
1111.356000
20
763.077100
0
SEQEND
0
POLYLINE
8
Washer-Plate_HOLE
66
1
70
1
0
VERTEX
8
Washer-Plate_HOLE
10
1191.356000
20
713.077100
0
VERTEX
8
Washer-Plate_HOLE
10
1189.072386
20
724.557603
0
VERTEX
8
Washer-Plate_HOLE
10
1182.569203
20
734.290303
0
VERTEX
8
Washer-Plate_HOLE
10
1172.836503
20
740.793486
0
VERTEX
8
Washer-Plate_HOLE
10
1161.356000
20
743.077100
0
VERTEX
8
Washer-Plate_HOLE
10
1149.875497
20
740.793486
0
VERTEX
8
Washer-Plate_HOLE
10
1140.142797
20
734.290303
0
VERTEX
8
Washer-Plate_HOLE
10
1133.639614
20
724.557603
0
VERTEX
8
Washer-Plate_HOLE
10
1131.356000
20
713.077100
0
VERTEX
8
Washer-Plate_HOLE
10
1133.639614
20
701.596597
0
VERTEX
8
Washer-Plate_HOLE
10
1140.142797
20
691.863897
0
VERTEX
8
Washer-Plate_HOLE
10
1149.875497
20
685.360714
0
VERTEX
8
Washer-Plate_HOLE
10
1161.356000
20
683.077100
0
VERTEX
8
Washer-Plate_HOLE
10
1172.836503
20
685.360714
0
VERTEX
8
Washer-Plate_HOLE
10
1182.569203
20
691.863897
0
VERTEX
8
Washer-Plate_HOLE
10
1189.072386
20
701.596597
0
SEQEND
0
POLYLINE
8
Washer-Plate
66
1
70
1
0
VERTEX
8
Washer-Plate
10
466.807200
20
696.243600
0
VERTEX
8
Washer-Plate
10
566.807200
20
696.243600
0
VERTEX
8
Washer-Plate
10
566.807200
20
796.243600
0
VERTEX
8
Washer-Plate
10
466.807200
20
796.243600
0
SEQEND
0
POLYLINE
8
Washer-Plate_HOLE
66
1
70
1
0
VERTEX
8
Washer-Plate_HOLE
10
546.807200
20
746.243600
0
VERTEX
8
Washer-Plate_HOLE
10
544.523586
20
757.724103
0
VERTEX
8
Washer-Plate_HOLE
10
538.020403
20
767.456803
0
VERTEX
8
Washer-Plate_HOLE
10
528.287703
20
773.959986
0
VERTEX
8
Washer-Plate_HOLE
10
516.807200
20
776.243600
0
VERTEX
8
Washer-Plate_HOLE
10
505.326697
20
773.959986
0
VERTEX
8
Washer-Plate_HOLE
10
495.593997
20
767.456803
0
VERTEX
8
Washer-Plate_HOLE
10
489.090814
20
757.724103
0
VERTEX
8
Washer-Plate_HOLE
10
486.807200
20
746.243600
0
VERTEX
8
Washer-Plate_HOLE
10
489.090814
20
734.763097
0
VERTEX
8
Washer-Plate_HOLE
10
495.593997
20
725.030397
0
VERTEX
8
Washer-Plate_HOLE
10
505.326697
20
718.527214
0
VERTEX
8
Washer-Plate_HOLE
10
516.807200
20
716.243600
0
VERTEX
8
Washer-Plate_HOLE
10
528.287703
20
718.527214
0
VERTEX
8
Washer-Plate_HOLE
10
538.020403
20
725.030397
0
VERTEX
8
Washer-Plate_HOLE
10
544.523586
20
734.763097
0
SEQEND
0
POLYLINE
8
Washer-Plate
66
1
70
1
0
VERTEX
8
Washer-Plate
10
159.535600
20
710.478500
0
VERTEX
8
Washer-Plate
10
259.535600
20
710.478500
0
VERTEX
8
Washer-Plate
10
259.535600
20
810.478500
0
VERTEX
8
Washer-Plate
10
159.535600
20
810.478500
0
SEQEND
0
POLYLINE
8
Washer-Plate_HOLE
66
1
70
1
0
VERTEX
8
Washer-Plate_HOLE
10
239.535600
20
760.478500
0
VERTEX
8
Washer-Plate_HOLE
10
237.251986
20
771.959003
0
VERTEX
8
Washer-Plate_HOLE
10
230.748803
20
781.691703
0
VERTEX
8
Washer-Plate_HOLE
10
221.016103
20
788.194886
0
VERTEX
8
Washer-Plate_HOLE
10
209.535600
20
790.478500
0
VERTEX
8
Washer-Plate_HOLE
10
198.055097
20
788.194886
0
VERTEX
8
Washer-Plate_HOLE
10
188.322397
20
781.691703
0
VERTEX
8
Washer-Plate_HOLE
10
181.819214
20
771.959003
0
VERTEX
8
Washer-Plate_HOLE
10
179.535600
20
760.478500
0
VERTEX
8
Washer-Plate_HOLE
10
181.819214
20
748.997997
0
VERTEX
8
Washer-Plate_HOLE
10
188.322397
20
739.265297
0
VERTEX
8
Washer-Plate_HOLE
10
198.055097
20
732.762114
0
VERTEX
8
Washer-Plate_HOLE
10
209.535600
20
730.478500
0
VERTEX
8
Washer-Plate_HOLE
10
221.016103
20
732.762114
0
VERTEX
8
Washer-Plate_HOLE
10
230.748803
20
739.265297
0
VERTEX
8
Washer-Plate_HOLE
10
237.251986
20
748.997997
0
SEQEND
0
POLYLINE
8
Small-Square
66
1
70
1
0
VERTEX
8
Small-Square
10
985.000000
20
123.000000
0
VERTEX
8
Small-Square
10
1045.000000
20
123.000000
0
VERTEX
8
Small-Square
10
1045.000000
20
183.000000
0
VERTEX
8
Small-Square
10
985.000000
20
183.000000
0
SEQEND
0
POLYLINE
8
Small-Square
66
1
70
1
0
VERTEX
8
Small-Square
10
1126.105100
20
446.000000
0
VERTEX
8
Small-Square
10
1186.105100
20
446.000000
0
VERTEX
8
Small-Square
10
1186.105100
20
506.000000
0
VERTEX
8
Small-Square
10
1126.105100
20
506.000000
0
SEQEND
0
POLYLINE
8
Small-Square
66
1
70
1
0
VERTEX
8
Small-Square
10
48.000000
20
457.000000
0
VERTEX
8
Small-Square
10
108.000000
20
457.000000
0
VERTEX
8
Small-Square
10
108.000000
20
517.000000
0
VERTEX
8
Small-Square
10
48.000000
20
517.000000
0
SEQEND
0
POLYLINE
8
Small-Square
66
1
70
1
0
VERTEX
8
Small-Square
10
111.000000
20
457.000000
0
VERTEX
8
Small-Square
10
171.000000
20
457.000000
0
VERTEX
8
Small-Square
10
171.000000
20
517.000000
0
VERTEX
8
Small-Square
10
111.000000
20
517.000000
0
SEQEND
0
POLYLINE
8
Small-Square
66
1
70
1
0
VERTEX
8
Small-Square
10
159.535600
20
592.000000
0
VERTEX
8
Small-Square
10
219.535600
20
592.000000
0
VERTEX
8
Small-Square
10
219.535600
20
652.000000
0
VERTEX
8
Small-Square
10
159.535600
20
652.000000
0
SEQEND
0
POLYLINE
8
Small-Square
66
1
70
1
0
VERTEX
8
Small-Square
10
743.904500
20
646.408100
0
VERTEX
8
Small-Square
10
803.904500
20
646.408100
0
VERTEX
8
Small-Square
10
803.904500
20
706.408100
0
VERTEX
8
Small-Square
10
743.904500
20
706.408100
0
SEQEND
0
POLYLINE
8
Small-Square
66
1
70
1
0
VERTEX
8
Small-Square
10
569.807200
20
696.243600
0
VERTEX
8
Small-Square
10
629.807200
20
696.243600
0
VERTEX
8
Small-Square
10
629.807200
20
756.243600
0
VERTEX
8
Small-Square
10
569.807200
20
756.243600
0
SEQEND
0
POLYLINE
8
Small-Square
66
1
70
1
0
VERTEX
8
Small-Square
10
743.904500
20
709.408100
0
VERTEX
8
Small-Square
10
803.904500
20
709.408100
0
VERTEX
8
Small-Square
10
803.904500
20
769.408100
0
VERTEX
8
Small-Square
10
743.904500
20
769.408100
0
SEQEND
0
POLYLINE
8
Small-Square
66
1
70
1
0
VERTEX
8
Small-Square
10
344.491500
20
710.270100
0
VERTEX
8
Small-Square
10
404.491500
20
710.270100
0
VERTEX
8
Small-Square
10
404.491500
20
770.270100
0
VERTEX
8
Small-Square
10
344.491500
20
770.270100
0
SEQEND
0
POLYLINE
8
Small-Square
66
1
70
1
0
VERTEX
8
Small-Square
10
632.807200
20
723.077500
0
VERTEX
8
Small-Square
10
692.807200
20
723.077500
0
VERTEX
8
Small-Square
10
692.807200
20
783.077500
0
VERTEX
8
Small-Square
10
632.807200
20
783.077500
0
SEQEND
0
ENDSEC
0
EOF
