solid 
 facet normal -1.000000e+00  0.000000e+00  0.000000e+00
   outer loop
     vertex -7.470000e+02  5.400000e+01  2.000000e+00
     vertex -7.470000e+02  2.460000e+02  0.000000e+00
     vertex -7.470000e+02  5.400000e+01  0.000000e+00
   endloop
 endfacet
 facet normal -1.000000e+00  0.000000e+00  0.000000e+00
   outer loop
     vertex -7.470000e+02  5.400000e+01  2.000000e+00
     vertex -7.470000e+02  2.460000e+02  2.000000e+00
     vertex -7.470000e+02  2.460000e+02  0.000000e+00
   endloop
 endfacet
 facet normal  0.000000e+00 -1.000000e+00  0.000000e+00
   outer loop
     vertex -7.371971e+02  5.400000e+01  1.600000e+01
     vertex -7.470000e+02  5.400000e+01  2.000000e+00
     vertex -7.470000e+02  5.400000e+01  0.000000e+00
   endloop
 endfacet
 facet normal  0.000000e+00 -1.000000e+00  0.000000e+00
   outer loop
     vertex  7.470000e+02  5.400000e+01  0.000000e+00
     vertex -7.371971e+02  5.400000e+01  1.600000e+01
     vertex -7.470000e+02  5.400000e+01  0.000000e+00
   endloop
 endfacet
 facet normal  0.000000e+00 -1.000000e+00  0.000000e+00
   outer loop
     vertex  7.371971e+02  5.400000e+01  1.600000e+01
     vertex  7.470000e+02  5.400000e+01  0.000000e+00
     vertex  7.470000e+02  5.400000e+01  2.000000e+00
   endloop
 endfacet
 facet normal -0.000000e+00 -1.000000e+00 -0.000000e+00
   outer loop
     vertex  7.371971e+02  5.400000e+01  1.600000e+01
     vertex -7.371971e+02  5.400000e+01  1.600000e+01
     vertex  7.470000e+02  5.400000e+01  0.000000e+00
   endloop
 endfacet
 facet normal -8.191520e-01  0.000000e+00  5.735764e-01
   outer loop
     vertex -7.371971e+02  5.400000e+01  1.600000e+01
     vertex -7.470000e+02  2.460000e+02  2.000000e+00
     vertex -7.470000e+02  5.400000e+01  2.000000e+00
   endloop
 endfacet
 facet normal -8.191520e-01  0.000000e+00  5.735764e-01
   outer loop
     vertex -7.371971e+02  5.400000e+01  1.600000e+01
     vertex -7.371971e+02  2.460000e+02  1.600000e+01
     vertex -7.470000e+02  2.460000e+02  2.000000e+00
   endloop
 endfacet
 facet normal  0.000000e+00  1.000000e+00  0.000000e+00
   outer loop
     vertex -7.371971e+02  2.460000e+02  1.600000e+01
     vertex -7.470000e+02  2.460000e+02  0.000000e+00
     vertex -7.470000e+02  2.460000e+02  2.000000e+00
   endloop
 endfacet
 facet normal  0.000000e+00  1.000000e+00  0.000000e+00
   outer loop
     vertex  7.470000e+02  2.460000e+02  0.000000e+00
     vertex -7.470000e+02  2.460000e+02  0.000000e+00
     vertex -7.371971e+02  2.460000e+02  1.600000e+01
   endloop
 endfacet
 facet normal  0.000000e+00  1.000000e+00  0.000000e+00
   outer loop
     vertex  7.371971e+02  2.460000e+02  1.600000e+01
     vertex  7.470000e+02  2.460000e+02  2.000000e+00
     vertex  7.470000e+02  2.460000e+02  0.000000e+00
   endloop
 endfacet
 facet normal  0.000000e+00  1.000000e+00  0.000000e+00
   outer loop
     vertex  7.371971e+02  2.460000e+02  1.600000e+01
     vertex  7.470000e+02  2.460000e+02  0.000000e+00
     vertex -7.371971e+02  2.460000e+02  1.600000e+01
   endloop
 endfacet
 facet normal -0.000000e+00  0.000000e+00 -1.000000e+00
   outer loop
     vertex  7.470000e+02  2.460000e+02  0.000000e+00
     vertex -7.470000e+02  5.400000e+01  0.000000e+00
     vertex -7.470000e+02  2.460000e+02  0.000000e+00
   endloop
 endfacet
 facet normal  0.000000e+00 -0.000000e+00 -1.000000e+00
   outer loop
     vertex  7.470000e+02  2.460000e+02  0.000000e+00
     vertex  7.470000e+02  5.400000e+01  0.000000e+00
     vertex -7.470000e+02  5.400000e+01  0.000000e+00
   endloop
 endfacet
 facet normal  1.000000e+00  0.000000e+00  0.000000e+00
   outer loop
     vertex  7.470000e+02  5.400000e+01  2.000000e+00
     vertex  7.470000e+02  5.400000e+01  0.000000e+00
     vertex  7.470000e+02  2.460000e+02  0.000000e+00
   endloop
 endfacet
 facet normal  1.000000e+00 -0.000000e+00  0.000000e+00
   outer loop
     vertex  7.470000e+02  5.400000e+01  2.000000e+00
     vertex  7.470000e+02  2.460000e+02  0.000000e+00
     vertex  7.470000e+02  2.460000e+02  2.000000e+00
   endloop
 endfacet
 facet normal  8.191520e-01  0.000000e+00  5.735764e-01
   outer loop
     vertex  7.371971e+02  5.400000e+01  1.600000e+01
     vertex  7.470000e+02  5.400000e+01  2.000000e+00
     vertex  7.470000e+02  2.460000e+02  2.000000e+00
   endloop
 endfacet
 facet normal  8.191520e-01 -0.000000e+00  5.735764e-01
   outer loop
     vertex  7.371971e+02  5.400000e+01  1.600000e+01
     vertex  7.470000e+02  2.460000e+02  2.000000e+00
     vertex  7.371971e+02  2.460000e+02  1.600000e+01
   endloop
 endfacet
 facet normal  0.000000e+00  0.000000e+00  1.000000e+00
   outer loop
     vertex  7.371971e+02  2.460000e+02  1.600000e+01
     vertex -7.371971e+02  2.460000e+02  1.600000e+01
     vertex -7.371971e+02  5.400000e+01  1.600000e+01
   endloop
 endfacet
 facet normal  0.000000e+00  0.000000e+00  1.000000e+00
   outer loop
     vertex  7.371971e+02  2.460000e+02  1.600000e+01
     vertex -7.371971e+02  5.400000e+01  1.600000e+01
     vertex  7.371971e+02  5.400000e+01  1.600000e+01
   endloop
 endfacet
endsolid
