0
SECTION
2
ENTITIES
0
POLYLINE
8
SHEET_BOUNDARY
66
1
70
1
0
VERTEX
8
SHEET_BOUNDARY
10
0.000000
20
0.000000
0
VERTEX
8
SHEET_BOUNDARY
10
1500.000000
20
0.000000
0
VERTEX
8
SHEET_BOUNDARY
10
1500.000000
20
3000.000000
0
VERTEX
8
SHEET_BOUNDARY
10
0.000000
20
3000.000000
0
SEQEND
0
POLYLINE
8
Channel_AAA03500_x1
66
1
70
1
0
VERTEX
8
Channel_AAA03500_x1
10
330.238934
20
401.500000
0
VERTEX
8
Channel_AAA03500_x1
10
465.238934
20
401.500000
0
VERTEX
8
Channel_AAA03500_x1
10
465.238934
20
2068.500000
0
VERTEX
8
Channel_AAA03500_x1
10
330.238934
20
2068.500000
0
VERTEX
8
Channel_AAA03500_x1
10
320.972518
20
2068.500000
0
VERTEX
8
Channel_AAA03500_x1
10
320.972518
20
2470.000000
0
VERTEX
8
Channel_AAA03500_x1
10
307.619467
20
2470.000000
0
VERTEX
8
Channel_AAA03500_x1
10
157.619467
20
2470.000000
0
VERTEX
8
Channel_AAA03500_x1
10
144.266416
20
2470.000000
0
VERTEX
8
Channel_AAA03500_x1
10
144.266416
20
2068.500000
0
VERTEX
8
Channel_AAA03500_x1
10
135.000000
20
2068.500000
0
VERTEX
8
Channel_AAA03500_x1
10
0.000000
20
2068.500000
0
VERTEX
8
Channel_AAA03500_x1
10
0.000000
20
401.500000
0
VERTEX
8
Channel_AAA03500_x1
10
135.000000
20
401.500000
0
VERTEX
8
Channel_AAA03500_x1
10
144.266416
20
401.500000
0
VERTEX
8
Channel_AAA03500_x1
10
144.266416
20
0.000000
0
VERTEX
8
Channel_AAA03500_x1
10
157.619467
20
0.000000
0
VERTEX
8
Channel_AAA03500_x1
10
307.619467
20
0.000000
0
VERTEX
8
Channel_AAA03500_x1
10
320.972518
20
0.000000
0
VERTEX
8
Channel_AAA03500_x1
10
320.972518
20
401.500000
0
SEQEND
0
POLYLINE
8
Top_Flange_AAA03501_x1
66
1
70
1
0
VERTEX
8
Top_Flange_AAA03501_x1
10
1290.898290
20
1402.705250
0
VERTEX
8
Top_Flange_AAA03501_x1
10
1290.000000
20
1389.000000
0
VERTEX
8
Top_Flange_AAA03501_x1
10
1290.000000
20
105.000000
0
VERTEX
8
Top_Flange_AAA03501_x1
10
1290.898290
20
91.294750
0
VERTEX
8
Top_Flange_AAA03501_x1
10
1293.577788
20
77.824000
0
VERTEX
8
Top_Flange_AAA03501_x1
10
1297.992649
20
64.818240
0
VERTEX
8
Top_Flange_AAA03501_x1
10
1304.067333
20
52.500000
0
VERTEX
8
Top_Flange_AAA03501_x1
10
1311.697899
20
41.080050
0
VERTEX
8
Top_Flange_AAA03501_x1
10
1320.753788
20
30.753788
0
VERTEX
8
Top_Flange_AAA03501_x1
10
1331.080050
20
21.697899
0
VERTEX
8
Top_Flange_AAA03501_x1
10
1342.500000
20
14.067333
0
VERTEX
8
Top_Flange_AAA03501_x1
10
1354.818240
20
7.992649
0
VERTEX
8
Top_Flange_AAA03501_x1
10
1367.824000
20
3.577788
0
VERTEX
8
Top_Flange_AAA03501_x1
10
1381.294750
20
0.898290
0
VERTEX
8
Top_Flange_AAA03501_x1
10
1395.000000
20
0.000000
0
VERTEX
8
Top_Flange_AAA03501_x1
10
1408.705250
20
0.898290
0
VERTEX
8
Top_Flange_AAA03501_x1
10
1422.176000
20
3.577788
0
VERTEX
8
Top_Flange_AAA03501_x1
10
1435.181760
20
7.992649
0
VERTEX
8
Top_Flange_AAA03501_x1
10
1447.500000
20
14.067333
0
VERTEX
8
Top_Flange_AAA03501_x1
10
1458.919950
20
21.697899
0
VERTEX
8
Top_Flange_AAA03501_x1
10
1469.246212
20
30.753788
0
VERTEX
8
Top_Flange_AAA03501_x1
10
1478.302101
20
41.080050
0
VERTEX
8
Top_Flange_AAA03501_x1
10
1485.932667
20
52.500000
0
VERTEX
8
Top_Flange_AAA03501_x1
10
1492.007351
20
64.818240
0
VERTEX
8
Top_Flange_AAA03501_x1
10
1496.422212
20
77.824000
0
VERTEX
8
Top_Flange_AAA03501_x1
10
1499.101710
20
91.294750
0
VERTEX
8
Top_Flange_AAA03501_x1
10
1500.000000
20
105.000000
0
VERTEX
8
Top_Flange_AAA03501_x1
10
1500.000000
20
1389.000000
0
VERTEX
8
Top_Flange_AAA03501_x1
10
1499.101710
20
1402.705250
0
VERTEX
8
Top_Flange_AAA03501_x1
10
1496.422212
20
1416.176000
0
VERTEX
8
Top_Flange_AAA03501_x1
10
1492.007351
20
1429.181760
0
VERTEX
8
Top_Flange_AAA03501_x1
10
1485.932667
20
1441.500000
0
VERTEX
8
Top_Flange_AAA03501_x1
10
1478.302101
20
1452.919950
0
VERTEX
8
Top_Flange_AAA03501_x1
10
1469.246212
20
1463.246212
0
VERTEX
8
Top_Flange_AAA03501_x1
10
1458.919950
20
1472.302101
0
VERTEX
8
Top_Flange_AAA03501_x1
10
1447.500000
20
1479.932667
0
VERTEX
8
Top_Flange_AAA03501_x1
10
1435.181760
20
1486.007351
0
VERTEX
8
Top_Flange_AAA03501_x1
10
1422.176000
20
1490.422212
0
VERTEX
8
Top_Flange_AAA03501_x1
10
1408.705250
20
1493.101710
0
VERTEX
8
Top_Flange_AAA03501_x1
10
1395.000000
20
1494.000000
0
VERTEX
8
Top_Flange_AAA03501_x1
10
1381.294750
20
1493.101710
0
VERTEX
8
Top_Flange_AAA03501_x1
10
1367.824000
20
1490.422212
0
VERTEX
8
Top_Flange_AAA03501_x1
10
1354.818240
20
1486.007351
0
VERTEX
8
Top_Flange_AAA03501_x1
10
1342.500000
20
1479.932667
0
VERTEX
8
Top_Flange_AAA03501_x1
10
1331.080050
20
1472.302101
0
VERTEX
8
Top_Flange_AAA03501_x1
10
1320.753788
20
1463.246212
0
VERTEX
8
Top_Flange_AAA03501_x1
10
1311.697899
20
1452.919950
0
VERTEX
8
Top_Flange_AAA03501_x1
10
1304.067333
20
1441.500000
0
VERTEX
8
Top_Flange_AAA03501_x1
10
1297.992649
20
1429.181760
0
VERTEX
8
Top_Flange_AAA03501_x1
10
1293.577788
20
1416.176000
0
SEQEND
0
POLYLINE
8
Side_Plate_LH_AAA03679_x1
66
1
70
1
0
VERTEX
8
Side_Plate_LH_AAA03679_x1
10
398.675100
20
12.000000
0
VERTEX
8
Side_Plate_LH_AAA03679_x1
10
418.675100
20
0.000000
0
VERTEX
8
Side_Plate_LH_AAA03679_x1
10
515.425100
20
0.000000
0
VERTEX
8
Side_Plate_LH_AAA03679_x1
10
547.675100
20
0.000000
0
VERTEX
8
Side_Plate_LH_AAA03679_x1
10
551.576906
20
0.384294
0
VERTEX
8
Side_Plate_LH_AAA03679_x1
10
555.328769
20
1.522409
0
VERTEX
8
Side_Plate_LH_AAA03679_x1
10
558.786505
20
3.370608
0
VERTEX
8
Side_Plate_LH_AAA03679_x1
10
561.817236
20
5.857864
0
VERTEX
8
Side_Plate_LH_AAA03679_x1
10
564.304492
20
8.888595
0
VERTEX
8
Side_Plate_LH_AAA03679_x1
10
566.152691
20
12.346331
0
VERTEX
8
Side_Plate_LH_AAA03679_x1
10
567.290806
20
16.098194
0
VERTEX
8
Side_Plate_LH_AAA03679_x1
10
567.675100
20
20.000000
0
VERTEX
8
Side_Plate_LH_AAA03679_x1
10
567.675100
20
315.500000
0
VERTEX
8
Side_Plate_LH_AAA03679_x1
10
566.952191
20
326.529463
0
VERTEX
8
Side_Plate_LH_AAA03679_x1
10
564.795832
20
337.370209
0
VERTEX
8
Side_Plate_LH_AAA03679_x1
10
561.242920
20
347.836750
0
VERTEX
8
Side_Plate_LH_AAA03679_x1
10
556.354247
20
357.750000
0
VERTEX
8
Side_Plate_LH_AAA03679_x1
10
550.213457
20
366.940341
0
VERTEX
8
Side_Plate_LH_AAA03679_x1
10
542.925623
20
375.250523
0
VERTEX
8
Side_Plate_LH_AAA03679_x1
10
534.615441
20
382.538357
0
VERTEX
8
Side_Plate_LH_AAA03679_x1
10
525.425100
20
388.679147
0
VERTEX
8
Side_Plate_LH_AAA03679_x1
10
515.511850
20
393.567820
0
VERTEX
8
Side_Plate_LH_AAA03679_x1
10
505.045309
20
397.120732
0
VERTEX
8
Side_Plate_LH_AAA03679_x1
10
494.204563
20
399.277091
0
VERTEX
8
Side_Plate_LH_AAA03679_x1
10
483.175100
20
400.000000
0
VERTEX
8
Side_Plate_LH_AAA03679_x1
10
472.145637
20
399.277091
0
VERTEX
8
Side_Plate_LH_AAA03679_x1
10
461.304891
20
397.120732
0
VERTEX
8
Side_Plate_LH_AAA03679_x1
10
450.838350
20
393.567820
0
VERTEX
8
Side_Plate_LH_AAA03679_x1
10
440.925100
20
388.679147
0
VERTEX
8
Side_Plate_LH_AAA03679_x1
10
431.734759
20
382.538357
0
VERTEX
8
Side_Plate_LH_AAA03679_x1
10
423.424577
20
375.250523
0
VERTEX
8
Side_Plate_LH_AAA03679_x1
10
416.136743
20
366.940341
0
VERTEX
8
Side_Plate_LH_AAA03679_x1
10
409.995953
20
357.750000
0
VERTEX
8
Side_Plate_LH_AAA03679_x1
10
405.107280
20
347.836750
0
VERTEX
8
Side_Plate_LH_AAA03679_x1
10
401.554368
20
337.370209
0
VERTEX
8
Side_Plate_LH_AAA03679_x1
10
399.398009
20
326.529463
0
VERTEX
8
Side_Plate_LH_AAA03679_x1
10
398.675100
20
315.500000
0
SEQEND
0
POLYLINE
8
Side_Plate_RH_AAA03678_x1
66
1
70
1
0
VERTEX
8
Side_Plate_RH_AAA03678_x1
10
586.773294
20
0.384294
0
VERTEX
8
Side_Plate_RH_AAA03678_x1
10
590.675100
20
0.000000
0
VERTEX
8
Side_Plate_RH_AAA03678_x1
10
687.425100
20
0.000000
0
VERTEX
8
Side_Plate_RH_AAA03678_x1
10
719.675100
20
0.000000
0
VERTEX
8
Side_Plate_RH_AAA03678_x1
10
739.675100
20
12.000000
0
VERTEX
8
Side_Plate_RH_AAA03678_x1
10
739.675100
20
315.500000
0
VERTEX
8
Side_Plate_RH_AAA03678_x1
10
738.952191
20
326.529463
0
VERTEX
8
Side_Plate_RH_AAA03678_x1
10
736.795832
20
337.370209
0
VERTEX
8
Side_Plate_RH_AAA03678_x1
10
733.242920
20
347.836750
0
VERTEX
8
Side_Plate_RH_AAA03678_x1
10
728.354247
20
357.750000
0
VERTEX
8
Side_Plate_RH_AAA03678_x1
10
722.213457
20
366.940341
0
VERTEX
8
Side_Plate_RH_AAA03678_x1
10
714.925623
20
375.250523
0
VERTEX
8
Side_Plate_RH_AAA03678_x1
10
706.615441
20
382.538357
0
VERTEX
8
Side_Plate_RH_AAA03678_x1
10
697.425100
20
388.679147
0
VERTEX
8
Side_Plate_RH_AAA03678_x1
10
687.511850
20
393.567820
0
VERTEX
8
Side_Plate_RH_AAA03678_x1
10
677.045309
20
397.120732
0
VERTEX
8
Side_Plate_RH_AAA03678_x1
10
666.204563
20
399.277091
0
VERTEX
8
Side_Plate_RH_AAA03678_x1
10
655.175100
20
400.000000
0
VERTEX
8
Side_Plate_RH_AAA03678_x1
10
644.145637
20
399.277091
0
VERTEX
8
Side_Plate_RH_AAA03678_x1
10
633.304891
20
397.120732
0
VERTEX
8
Side_Plate_RH_AAA03678_x1
10
622.838350
20
393.567820
0
VERTEX
8
Side_Plate_RH_AAA03678_x1
10
612.925100
20
388.679147
0
VERTEX
8
Side_Plate_RH_AAA03678_x1
10
603.734759
20
382.538357
0
VERTEX
8
Side_Plate_RH_AAA03678_x1
10
595.424577
20
375.250523
0
VERTEX
8
Side_Plate_RH_AAA03678_x1
10
588.136743
20
366.940341
0
VERTEX
8
Side_Plate_RH_AAA03678_x1
10
581.995953
20
357.750000
0
VERTEX
8
Side_Plate_RH_AAA03678_x1
10
577.107280
20
347.836750
0
VERTEX
8
Side_Plate_RH_AAA03678_x1
10
573.554368
20
337.370209
0
VERTEX
8
Side_Plate_RH_AAA03678_x1
10
571.398009
20
326.529463
0
VERTEX
8
Side_Plate_RH_AAA03678_x1
10
570.675100
20
315.500000
0
VERTEX
8
Side_Plate_RH_AAA03678_x1
10
570.675100
20
20.000000
0
VERTEX
8
Side_Plate_RH_AAA03678_x1
10
571.059394
20
16.098194
0
VERTEX
8
Side_Plate_RH_AAA03678_x1
10
572.197509
20
12.346331
0
VERTEX
8
Side_Plate_RH_AAA03678_x1
10
574.045708
20
8.888595
0
VERTEX
8
Side_Plate_RH_AAA03678_x1
10
576.532964
20
5.857864
0
VERTEX
8
Side_Plate_RH_AAA03678_x1
10
579.563695
20
3.370608
0
VERTEX
8
Side_Plate_RH_AAA03678_x1
10
583.021431
20
1.522409
0
SEQEND
0
POLYLINE
8
Rib_AAA03502_#1
66
1
70
1
0
VERTEX
8
Rib_AAA03502_#1
10
742.675100
20
10.000000
0
VERTEX
8
Rib_AAA03502_#1
10
752.675100
20
0.000000
0
VERTEX
8
Rib_AAA03502_#1
10
884.675100
20
0.000000
0
VERTEX
8
Rib_AAA03502_#1
10
884.675100
20
168.000000
0
VERTEX
8
Rib_AAA03502_#1
10
742.675100
20
168.000000
0
SEQEND
0
POLYLINE
8
Rib_AAA03502_#3
66
1
70
1
0
VERTEX
8
Rib_AAA03502_#3
10
887.675100
20
10.000000
0
VERTEX
8
Rib_AAA03502_#3
10
897.675100
20
0.000000
0
VERTEX
8
Rib_AAA03502_#3
10
1029.675100
20
0.000000
0
VERTEX
8
Rib_AAA03502_#3
10
1029.675100
20
168.000000
0
VERTEX
8
Rib_AAA03502_#3
10
887.675100
20
168.000000
0
SEQEND
0
POLYLINE
8
Rib_AAA03502_#5
66
1
70
1
0
VERTEX
8
Rib_AAA03502_#5
10
1032.675100
20
10.000000
0
VERTEX
8
Rib_AAA03502_#5
10
1042.675100
20
0.000000
0
VERTEX
8
Rib_AAA03502_#5
10
1174.675100
20
0.000000
0
VERTEX
8
Rib_AAA03502_#5
10
1174.675100
20
168.000000
0
VERTEX
8
Rib_AAA03502_#5
10
1032.675100
20
168.000000
0
SEQEND
0
POLYLINE
8
Rib_AAA03502_#7
66
1
70
1
0
VERTEX
8
Rib_AAA03502_#7
10
742.675100
20
181.000000
0
VERTEX
8
Rib_AAA03502_#7
10
752.675100
20
171.000000
0
VERTEX
8
Rib_AAA03502_#7
10
884.675100
20
171.000000
0
VERTEX
8
Rib_AAA03502_#7
10
884.675100
20
339.000000
0
VERTEX
8
Rib_AAA03502_#7
10
742.675100
20
339.000000
0
SEQEND
0
POLYLINE
8
Rib_AAA03502_#9
66
1
70
1
0
VERTEX
8
Rib_AAA03502_#9
10
887.675100
20
181.000000
0
VERTEX
8
Rib_AAA03502_#9
10
897.675100
20
171.000000
0
VERTEX
8
Rib_AAA03502_#9
10
1029.675100
20
171.000000
0
VERTEX
8
Rib_AAA03502_#9
10
1029.675100
20
339.000000
0
VERTEX
8
Rib_AAA03502_#9
10
887.675100
20
339.000000
0
SEQEND
0
POLYLINE
8
Rib_AAA03503_#2
66
1
70
1
0
VERTEX
8
Rib_AAA03503_#2
10
1032.675100
20
181.000000
0
VERTEX
8
Rib_AAA03503_#2
10
1042.675100
20
171.000000
0
VERTEX
8
Rib_AAA03503_#2
10
1174.675100
20
171.000000
0
VERTEX
8
Rib_AAA03503_#2
10
1174.675100
20
333.000000
0
VERTEX
8
Rib_AAA03503_#2
10
1032.675100
20
333.000000
0
SEQEND
0
POLYLINE
8
Rib_AAA03503_#4
66
1
70
1
0
VERTEX
8
Rib_AAA03503_#4
10
1028.675100
20
346.000000
0
VERTEX
8
Rib_AAA03503_#4
10
1038.675100
20
336.000000
0
VERTEX
8
Rib_AAA03503_#4
10
1170.675100
20
336.000000
0
VERTEX
8
Rib_AAA03503_#4
10
1170.675100
20
498.000000
0
VERTEX
8
Rib_AAA03503_#4
10
1028.675100
20
498.000000
0
SEQEND
0
POLYLINE
8
Rib_AAA03503_#6
66
1
70
1
0
VERTEX
8
Rib_AAA03503_#6
10
734.534800
20
352.000000
0
VERTEX
8
Rib_AAA03503_#6
10
744.534800
20
342.000000
0
VERTEX
8
Rib_AAA03503_#6
10
876.534800
20
342.000000
0
VERTEX
8
Rib_AAA03503_#6
10
876.534800
20
504.000000
0
VERTEX
8
Rib_AAA03503_#6
10
734.534800
20
504.000000
0
SEQEND
0
POLYLINE
8
Rib_AAA03503_#8
66
1
70
1
0
VERTEX
8
Rib_AAA03503_#8
10
879.534800
20
352.000000
0
VERTEX
8
Rib_AAA03503_#8
10
889.534800
20
342.000000
0
VERTEX
8
Rib_AAA03503_#8
10
1021.534800
20
342.000000
0
VERTEX
8
Rib_AAA03503_#8
10
1021.534800
20
504.000000
0
VERTEX
8
Rib_AAA03503_#8
10
879.534800
20
504.000000
0
SEQEND
0
POLYLINE
8
Lug_EMU/M-0-3-041_#1
66
1
70
1
0
VERTEX
8
Lug_EMU/M-0-3-041_#1
10
0.000000
20
10.000000
0
VERTEX
8
Lug_EMU/M-0-3-041_#1
10
10.000000
20
0.000000
0
VERTEX
8
Lug_EMU/M-0-3-041_#1
10
55.000000
20
0.000000
0
VERTEX
8
Lug_EMU/M-0-3-041_#1
10
55.000000
20
60.000000
0
VERTEX
8
Lug_EMU/M-0-3-041_#1
10
10.000000
20
60.000000
0
VERTEX
8
Lug_EMU/M-0-3-041_#1
10
0.000000
20
50.000000
0
SEQEND
0
POLYLINE
8
Lug_EMU/M-0-3-041_#1_HOLE
66
1
70
1
0
VERTEX
8
Lug_EMU/M-0-3-041_#1_HOLE
10
20.000000
20
37.500000
0
VERTEX
8
Lug_EMU/M-0-3-041_#1_HOLE
10
23.545341
20
36.609127
0
VERTEX
8
Lug_EMU/M-0-3-041_#1_HOLE
10
26.248429
20
34.148149
0
VERTEX
8
Lug_EMU/M-0-3-041_#1_HOLE
10
27.467101
20
30.701710
0
VERTEX
8
Lug_EMU/M-0-3-041_#1_HOLE
10
26.911843
20
27.088570
0
VERTEX
8
Lug_EMU/M-0-3-041_#1_HOLE
10
24.714564
20
24.167086
0
VERTEX
8
Lug_EMU/M-0-3-041_#1_HOLE
10
21.397265
20
22.631306
0
VERTEX
8
Lug_EMU/M-0-3-041_#1_HOLE
10
17.748022
20
22.846078
0
VERTEX
8
Lug_EMU/M-0-3-041_#1_HOLE
10
14.633774
20
24.760380
0
VERTEX
8
Lug_EMU/M-0-3-041_#1_HOLE
10
12.794359
20
27.919439
0
VERTEX
8
Lug_EMU/M-0-3-041_#1_HOLE
10
12.666761
20
31.572769
0
VERTEX
8
Lug_EMU/M-0-3-041_#1_HOLE
10
14.281292
20
34.852461
0
VERTEX
8
Lug_EMU/M-0-3-041_#1_HOLE
10
17.254396
20
36.979374
0
SEQEND
0
POLYLINE
8
Lug_EMU/M-0-3-041_#2
66
1
70
1
0
VERTEX
8
Lug_EMU/M-0-3-041_#2
10
58.000000
20
10.000000
0
VERTEX
8
Lug_EMU/M-0-3-041_#2
10
68.000000
20
0.000000
0
VERTEX
8
Lug_EMU/M-0-3-041_#2
10
113.000000
20
0.000000
0
VERTEX
8
Lug_EMU/M-0-3-041_#2
10
113.000000
20
60.000000
0
VERTEX
8
Lug_EMU/M-0-3-041_#2
10
68.000000
20
60.000000
0
VERTEX
8
Lug_EMU/M-0-3-041_#2
10
58.000000
20
50.000000
0
SEQEND
0
POLYLINE
8
Lug_EMU/M-0-3-041_#2_HOLE
66
1
70
1
0
VERTEX
8
Lug_EMU/M-0-3-041_#2_HOLE
10
78.000000
20
37.500000
0
VERTEX
8
Lug_EMU/M-0-3-041_#2_HOLE
10
81.545341
20
36.609127
0
VERTEX
8
Lug_EMU/M-0-3-041_#2_HOLE
10
84.248429
20
34.148149
0
VERTEX
8
Lug_EMU/M-0-3-041_#2_HOLE
10
85.467101
20
30.701710
0
VERTEX
8
Lug_EMU/M-0-3-041_#2_HOLE
10
84.911843
20
27.088570
0
VERTEX
8
Lug_EMU/M-0-3-041_#2_HOLE
10
82.714564
20
24.167086
0
VERTEX
8
Lug_EMU/M-0-3-041_#2_HOLE
10
79.397265
20
22.631306
0
VERTEX
8
Lug_EMU/M-0-3-041_#2_HOLE
10
75.748022
20
22.846078
0
VERTEX
8
Lug_EMU/M-0-3-041_#2_HOLE
10
72.633774
20
24.760380
0
VERTEX
8
Lug_EMU/M-0-3-041_#2_HOLE
10
70.794359
20
27.919439
0
VERTEX
8
Lug_EMU/M-0-3-041_#2_HOLE
10
70.666761
20
31.572769
0
VERTEX
8
Lug_EMU/M-0-3-041_#2_HOLE
10
72.281292
20
34.852461
0
VERTEX
8
Lug_EMU/M-0-3-041_#2_HOLE
10
75.254396
20
36.979374
0
SEQEND
0
ENDSEC
0
EOF
